<svg xmlns="http://www.w3.org/2000/svg"  viewBox="0 0 40 40" width="40px" height="40px"><path fill="#98ccfd" d="M13.8,16.91c6.975-2.215,8.504-8.447,7.619-14.204c0,0,0-0.332,0.222-0.222 C28.394,5.807,35.5,12.593,35.5,23.332C35.5,31.303,29.19,38.5,20,38.5c-9.965,0-15.5-6.975-15.5-15.278 c0-4.982,3.27-9.588,7.145-11.802c0.336-0.204,0.9-0.143,0.871,0.194c-0.097,1.129-0.045,3.527,1.173,5.187L13.8,16.91z"/><path fill="#4788c7" d="M20,39c-9.42,0-15.981-6.502-15.981-15.792c0-5.534,3.649-9.994,7.33-12.096 c0.423-0.258,1.166-0.359,1.474-0.022c0.141,0.154,0.195,0.354,0.177,0.566c-0.042,0.488-0.17,2.941,0.969,4.672 C21.709,13.662,21.493,5.938,21,2.73C20.994,2.223,21.201,2,21.571,2l0.305,0.059C26.125,4.149,36,10.389,36,23.332 C36,32.118,28.972,39,20,39z M12,11.814c-0.042,0.007-0.072,0.018-0.095,0.033C8.462,13.813,5,18.089,5,23.222 C5,30.577,9.638,38,20,38c9.389,0,15-7.458,15-14.668c0-11.835-8.677-17.848-13.009-20.109c0.469,3.688,0.354,11.498-8.04,14.164 l-0.289,0.092l-0.326-0.324C11.966,15.295,11.942,12.83,12,11.814z"/></svg>